<?xml version="1.0" encoding="UTF-8" standalone="no"?>
<svg
   xmlns:dc="http://purl.org/dc/elements/1.1/"
   xmlns:cc="http://creativecommons.org/ns#"
   xmlns:rdf="http://www.w3.org/1999/02/22-rdf-syntax-ns#"
   xmlns:svg="http://www.w3.org/2000/svg"
   xmlns="http://www.w3.org/2000/svg"
   xmlns:sodipodi="http://sodipodi.sourceforge.net/DTD/sodipodi-0.dtd"
   xmlns:inkscape="http://www.inkscape.org/namespaces/inkscape"
   id="svg5771"
   version="1.1"
   viewBox="0 0 48.106083 20.812126"
   height="20.812126mm"
   width="48.106083mm"
   sodipodi:docname="logo-white.svg"
   inkscape:version="0.92.1 r">
  <sodipodi:namedview
     pagecolor="#ffffff"
     bordercolor="#666666"
     borderopacity="1"
     objecttolerance="10"
     gridtolerance="10"
     guidetolerance="10"
     inkscape:pageopacity="0"
     inkscape:pageshadow="2"
     inkscape:window-width="3440"
     inkscape:window-height="1387"
     id="namedview4503"
     showgrid="false"
     inkscape:zoom="3.5596235"
     inkscape:cx="116.13204"
     inkscape:cy="-21.561229"
     inkscape:window-x="3200"
     inkscape:window-y="0"
     inkscape:window-maximized="1"
     inkscape:current-layer="svg5771" />
  <defs
     id="defs5765" />
  <metadata
     id="metadata5768">
    <rdf:RDF>
      <cc:Work
         rdf:about="">
        <dc:format>image/svg+xml</dc:format>
        <dc:type
           rdf:resource="http://purl.org/dc/dcmitype/StillImage" />
        <dc:title></dc:title>
      </cc:Work>
    </rdf:RDF>
  </metadata>
  <path
     inkscape:connector-curvature="0"
     id="path4529"
     style="font-style:normal;font-variant:normal;font-weight:500;font-stretch:normal;font-size:medium;line-height:6.62227392px;font-family:Gotham;-inkscape-font-specification:'Gotham Medium';letter-spacing:0px;word-spacing:0px;fill:#ffffff;fill-opacity:1;stroke:none;stroke-width:0.26489094px;stroke-linecap:butt;stroke-linejoin:miter;stroke-opacity:1"
     d="m 2.5112357,13.236244 h 3.623708 q 0.9959899,0 1.6317281,0.233105 0.6463339,0.222508 1.0383725,0.614546 0.3390604,0.339061 0.5085906,0.762886 0.1695302,0.423826 0.1695302,0.99599 v 0.02119 q 0,0.815864 -0.3920386,1.377432 -0.3920386,0.561569 -1.0701594,0.890034 L 9.748056,20.653191 H 6.9190208 L 5.5203967,18.534063 H 4.9906148 v 2.119128 H 2.5112357 Z m 3.5495385,3.528348 q 0.4450168,0 0.6993121,-0.190722 0.2542953,-0.190721 0.2542953,-0.529782 v -0.02119 q 0,-0.360252 -0.2542953,-0.529782 Q 6.505791,15.312989 6.0713698,15.312989 h -1.080755 v 1.451603 z" />
  <path
     inkscape:connector-curvature="0"
     id="path4531"
     style="font-style:normal;font-variant:normal;font-weight:500;font-stretch:normal;font-size:medium;line-height:6.62227392px;font-family:Gotham;-inkscape-font-specification:'Gotham Medium';letter-spacing:0px;word-spacing:0px;fill:#ffffff;fill-opacity:1;stroke:none;stroke-width:0.26489094px;stroke-linecap:butt;stroke-linejoin:miter;stroke-opacity:1"
     d="m 10.085461,13.236244 h 6.325595 v 2.034363 h -3.888599 v 0.75229 h 3.623708 v 1.790663 h -3.623708 v 0.805268 h 3.941577 v 2.034363 h -6.378573 z" />
  <path
     inkscape:connector-curvature="0"
     id="path4533"
     style="font-style:normal;font-variant:normal;font-weight:500;font-stretch:normal;font-size:medium;line-height:6.62227392px;font-family:Gotham;-inkscape-font-specification:'Gotham Medium';letter-spacing:0px;word-spacing:0px;fill:#ffffff;fill-opacity:1;stroke:none;stroke-width:0.26489094px;stroke-linecap:butt;stroke-linejoin:miter;stroke-opacity:1"
     d="m 17.121625,13.236244 h 2.585336 l 1.589346,2.606527 1.589345,-2.606527 h 2.585336 v 7.416947 h -2.468784 v -3.676687 l -1.705897,2.638314 h -0.04238 l -1.705898,-2.638314 v 3.676687 h -2.426401 z" />
  <path
     inkscape:connector-curvature="0"
     id="path4535"
     style="font-style:normal;font-variant:normal;font-weight:500;font-stretch:normal;font-size:medium;line-height:6.62227392px;font-family:Gotham;-inkscape-font-specification:'Gotham Medium';letter-spacing:0px;word-spacing:0px;fill:#ffffff;fill-opacity:1;stroke:none;stroke-width:0.26489094px;stroke-linecap:butt;stroke-linejoin:miter;stroke-opacity:1"
     d="m 30.177437,20.812125 q -0.858247,0 -1.599941,-0.296678 -0.731099,-0.296678 -1.282072,-0.815864 -0.540378,-0.519186 -0.847651,-1.218498 -0.307274,-0.709908 -0.307274,-1.515176 v -0.02119 q 0,-0.805269 0.307274,-1.504581 0.317869,-0.709908 0.858246,-1.229094 0.550974,-0.529782 1.292668,-0.82646 0.741695,-0.307273 1.599941,-0.307273 0.858247,0 1.589346,0.296678 0.741695,0.296678 1.282072,0.815864 0.550973,0.519186 0.858247,1.229094 0.307273,0.699312 0.307273,1.50458 v 0.02119 q 0,0.805268 -0.317869,1.515176 -0.307273,0.699312 -0.858247,1.229094 -0.540377,0.519186 -1.282072,0.826459 -0.741694,0.296678 -1.599941,0.296678 z m 0.02119,-2.193297 q 0.349656,0 0.635739,-0.137743 0.286082,-0.137743 0.487399,-0.360252 0.201317,-0.233104 0.307273,-0.529782 0.105957,-0.296677 0.105957,-0.625142 v -0.02119 q 0,-0.328465 -0.116552,-0.625143 -0.105957,-0.307274 -0.307274,-0.540378 -0.201317,-0.233104 -0.487399,-0.370847 -0.286082,-0.137743 -0.646334,-0.137743 -0.349656,0 -0.635738,0.137743 -0.286082,0.137743 -0.487399,0.370847 -0.201318,0.222509 -0.307274,0.519187 -0.105956,0.296678 -0.105956,0.625142 v 0.02119 q 0,0.328464 0.105956,0.635738 0.116552,0.296678 0.317869,0.529782 0.201317,0.233104 0.4874,0.370847 0.286082,0.137743 0.646333,0.137743 z" />
  <path
     inkscape:connector-curvature="0"
     id="path4537"
     style="font-style:normal;font-variant:normal;font-weight:500;font-stretch:normal;font-size:medium;line-height:6.62227392px;font-family:Gotham;-inkscape-font-specification:'Gotham Medium';letter-spacing:0px;word-spacing:0px;fill:#ffffff;fill-opacity:1;stroke:none;stroke-width:0.26489094px;stroke-linecap:butt;stroke-linejoin:miter;stroke-opacity:1"
     d="m 36.505187,15.334181 h -2.182702 v -2.097937 h 6.844782 v 2.097937 h -2.182701 v 5.31901 h -2.479379 z" />
  <path
     inkscape:connector-curvature="0"
     id="path4539"
     style="font-style:normal;font-variant:normal;font-weight:500;font-stretch:normal;font-size:medium;line-height:6.62227392px;font-family:Gotham;-inkscape-font-specification:'Gotham Medium';letter-spacing:0px;word-spacing:0px;fill:#ffffff;fill-opacity:1;stroke:none;stroke-width:0.26489094px;stroke-linecap:butt;stroke-linejoin:miter;stroke-opacity:1"
     d="m 41.72751,13.236244 h 6.325595 v 2.034363 h -3.888598 v 0.75229 h 3.623708 v 1.790663 h -3.623708 v 0.805268 h 3.941577 v 2.034363 H 41.72751 Z" />
  <path
     d="M 0.28206943,4.7843775 C -0.47476995,6.5536883 0.34337807,8.580244 2.1147976,9.3320788 L 9.9626618,12.664625 C 11.080432,10.051592 12.198179,7.4385497 13.315915,4.8255305 14.072754,3.056218 13.255356,1.0279412 11.483185,0.27782412 9.7110307,-0.4722997 7.6750323,0.34818822 6.9182004,2.1175175 L 6.301079,3.5601425 4.847071,2.9446773 C 3.074883,2.194567 1.0389086,3.0150667 0.28206943,4.7843775 Z"
     style="color:#000000;display:inline;overflow:visible;visibility:visible;fill:#ffffff;fill-opacity:1;stroke:none;stroke-width:0.18100235;enable-background:accumulate"
     visibility="visible"
     display="inline"
     overflow="visible"
     id="path5010"
     inkscape:connector-curvature="0" />
  <path
     id="path5153"
     style="font-style:normal;font-variant:normal;font-weight:500;font-stretch:normal;font-size:medium;line-height:25px;font-family:Gotham;-inkscape-font-specification:'Gotham Medium';letter-spacing:0px;word-spacing:0px;fill:#ffffff;fill-opacity:1;stroke:none;stroke-width:0.13556975px;stroke-linecap:butt;stroke-linejoin:miter;stroke-opacity:1"
     d="m 13.116534,8.5504626 h 1.268933 v 2.7113954 h 1.784097 v 1.084558 h -3.05303 z"
     inkscape:connector-curvature="0" />
  <path
     id="path5155"
     style="font-style:normal;font-variant:normal;font-weight:500;font-stretch:normal;font-size:medium;line-height:25px;font-family:Gotham;-inkscape-font-specification:'Gotham Medium';letter-spacing:0px;word-spacing:0px;fill:#ffffff;fill-opacity:1;stroke:none;stroke-width:0.13556975px;stroke-linecap:butt;stroke-linejoin:miter;stroke-opacity:1"
     d="m 16.442229,8.5504626 h 3.237406 v 1.0411756 h -1.990164 v 0.3850181 h 1.854594 v 0.9164517 h -1.854594 v 0.412132 h 2.017278 v 1.041176 h -3.26452 z"
     inkscape:connector-curvature="0" />
  <path
     id="path5157"
     style="font-style:normal;font-variant:normal;font-weight:500;font-stretch:normal;font-size:medium;line-height:25px;font-family:Gotham;-inkscape-font-specification:'Gotham Medium';letter-spacing:0px;word-spacing:0px;fill:#ffffff;fill-opacity:1;stroke:none;stroke-width:0.13556975px;stroke-linecap:butt;stroke-linejoin:miter;stroke-opacity:1"
     d="M 21.01398,9.624175 H 19.896885 V 8.5504626 h 3.503123 V 9.624175 h -1.117095 v 2.722241 H 21.01398 Z"
     inkscape:connector-curvature="0" />
  <path
     id="path5159"
     style="font-style:normal;font-variant:normal;font-weight:500;font-stretch:normal;font-size:medium;line-height:25px;font-family:Gotham;-inkscape-font-specification:'Gotham Medium';letter-spacing:0px;word-spacing:0px;fill:#ffffff;fill-opacity:1;stroke:none;stroke-width:0.13556975px;stroke-linecap:butt;stroke-linejoin:miter;stroke-opacity:1"
     d="m 23.675892,8.5504626 h 1.323161 v 0.027114 l -0.780882,2.1365794 h -0.688694 z"
     inkscape:connector-curvature="0" />
  <path
     id="path5161"
     style="font-style:normal;font-variant:normal;font-weight:500;font-stretch:normal;font-size:medium;line-height:25px;font-family:Gotham;-inkscape-font-specification:'Gotham Medium';letter-spacing:0px;word-spacing:0px;fill:#ffffff;fill-opacity:1;stroke:none;stroke-width:0.13556975px;stroke-linecap:butt;stroke-linejoin:miter;stroke-opacity:1"
     d="m 26.844157,12.416912 q -0.580238,0 -1.084558,-0.157261 -0.498897,-0.162684 -0.862224,-0.482628 l 0.677849,-0.807996 q 0.309099,0.238603 0.650735,0.341636 0.341636,0.103033 0.677849,0.103033 0.173529,0 0.249448,-0.04338 0.07592,-0.04338 0.07592,-0.119301 v -0.01085 q 0,-0.08134 -0.113878,-0.135569 -0.108456,-0.05423 -0.412132,-0.113879 -0.319945,-0.06507 -0.612776,-0.151838 -0.287408,-0.08676 -0.509742,-0.222334 -0.216912,-0.13557 -0.347059,-0.336213 -0.130147,-0.206066 -0.130147,-0.5097427 v -0.010846 q 0,-0.2711395 0.103034,-0.5043194 0.108455,-0.23318 0.309099,-0.4067093 0.206066,-0.1735293 0.504319,-0.2711395 0.303676,-0.09761 0.694117,-0.09761 0.553125,0 0.965257,0.130147 0.417555,0.1301469 0.748345,0.3904408 L 27.809414,9.857355 q -0.27114,-0.1952205 -0.574816,-0.2819851 -0.298253,-0.092187 -0.56397,-0.092187 -0.140993,0 -0.211489,0.043382 -0.06507,0.043382 -0.06507,0.1138786 v 0.010846 q 0,0.03796 0.02169,0.070496 0.02169,0.032537 0.07592,0.065074 0.05965,0.027114 0.157261,0.054228 0.09761,0.027114 0.249448,0.054228 0.363327,0.065074 0.66158,0.1572605 0.298254,0.09219 0.509743,0.238603 0.216911,0.140993 0.33079,0.341636 0.119301,0.200643 0.119301,0.488051 v 0.01085 q 0,0.298253 -0.119301,0.536856 -0.119302,0.238603 -0.336213,0.406709 -0.216912,0.162684 -0.531434,0.254871 -0.309099,0.08676 -0.688694,0.08676 z"
     inkscape:connector-curvature="0" />
  <path
     id="path5163"
     style="font-style:normal;font-variant:normal;font-weight:500;font-stretch:normal;font-size:medium;line-height:25px;font-family:Gotham;-inkscape-font-specification:'Gotham Medium';letter-spacing:0px;word-spacing:0px;fill:#ffffff;fill-opacity:1;stroke:none;stroke-width:0.13556975px;stroke-linecap:butt;stroke-linejoin:miter;stroke-opacity:1"
     d="m 29.888206,8.5504626 h 1.328584 l 0.536856,1.8220574 0.612775,-1.832903 h 1.095404 L 34.0746,10.37252 34.611456,8.5504626 h 1.306893 L 34.67653,12.37353 h -1.106249 l -0.667003,-1.887131 -0.667004,1.887131 h -1.106249 z"
     inkscape:connector-curvature="0" />
  <path
     id="path5165"
     style="font-style:normal;font-variant:normal;font-weight:500;font-stretch:normal;font-size:medium;line-height:25px;font-family:Gotham;-inkscape-font-specification:'Gotham Medium';letter-spacing:0px;word-spacing:0px;fill:#ffffff;fill-opacity:1;stroke:none;stroke-width:0.13556975px;stroke-linecap:butt;stroke-linejoin:miter;stroke-opacity:1"
     d="m 37.899108,12.427757 q -0.439247,0 -0.818841,-0.151838 -0.374174,-0.151838 -0.656159,-0.417555 -0.276562,-0.265716 -0.433823,-0.62362 -0.157261,-0.363327 -0.157261,-0.775459 v -0.01085 q 0,-0.412132 0.157261,-0.7700361 0.162684,-0.3633269 0.439247,-0.6290437 0.281984,-0.2711395 0.661579,-0.4229776 0.379597,-0.1572609 0.818842,-0.1572609 0.439246,0 0.813418,0.1518381 0.379597,0.1518382 0.656158,0.4175549 0.281986,0.2657167 0.439247,0.6290436 0.15726,0.3579037 0.15726,0.7700357 v 0.01085 q 0,0.412132 -0.162683,0.775459 -0.157262,0.357904 -0.439246,0.629044 -0.276563,0.265716 -0.656159,0.422977 -0.379594,0.151838 -0.81884,0.151838 z m 0.01085,-1.122517 q 0.178953,0 0.325367,-0.0705 0.146416,-0.0705 0.249449,-0.184375 0.103033,-0.119302 0.157261,-0.27114 0.05423,-0.151838 0.05423,-0.319944 v -0.01085 q 0,-0.168106 -0.05965,-0.319945 -0.05423,-0.1572605 -0.15726,-0.2765618 -0.103033,-0.1193014 -0.24945,-0.1897977 -0.146415,-0.070496 -0.330788,-0.070496 -0.178954,0 -0.325369,0.070496 -0.146414,0.070496 -0.249448,0.1897977 -0.103033,0.1138786 -0.157261,0.2657168 -0.05423,0.151838 -0.05423,0.319944 v 0.01085 q 0,0.168107 0.05423,0.325367 0.05965,0.151839 0.162683,0.27114 0.103033,0.119301 0.249449,0.189798 0.146415,0.0705 0.33079,0.0705 z"
     inkscape:connector-curvature="0" />
  <path
     id="path5167"
     style="font-style:normal;font-variant:normal;font-weight:500;font-stretch:normal;font-size:medium;line-height:25px;font-family:Gotham;-inkscape-font-specification:'Gotham Medium';letter-spacing:0px;word-spacing:0px;fill:#ffffff;fill-opacity:1;stroke:none;stroke-width:0.13556975px;stroke-linecap:butt;stroke-linejoin:miter;stroke-opacity:1"
     d="M 40.325807,8.5504626 H 42.1804 q 0.509742,0 0.835111,0.1193013 0.330788,0.1138786 0.531433,0.3145219 0.173528,0.1735292 0.260293,0.3904408 0.08676,0.2169116 0.08676,0.5097423 v 0.010846 q 0,0.4175541 -0.200642,0.7049621 -0.200643,0.287408 -0.547703,0.455515 l 0.883915,1.290624 H 42.581686 L 41.865879,11.261858 H 41.59474 v 1.084558 h -1.268933 z m 1.816633,1.8057894 q 0.227757,0 0.357904,-0.09761 0.130149,-0.09761 0.130149,-0.2711391 v -0.010846 q 0,-0.1843748 -0.130149,-0.2711395 -0.130147,-0.092187 -0.352481,-0.092187 H 41.59474 v 0.7429226 z"
     inkscape:connector-curvature="0" />
  <path
     id="path5169"
     style="font-style:normal;font-variant:normal;font-weight:500;font-stretch:normal;font-size:medium;line-height:25px;font-family:Gotham;-inkscape-font-specification:'Gotham Medium';letter-spacing:0px;word-spacing:0px;fill:#ffffff;fill-opacity:1;stroke:none;stroke-width:0.13556975px;stroke-linecap:butt;stroke-linejoin:miter;stroke-opacity:1"
     d="m 44.202254,8.5504626 h 1.268933 v 1.4207709 l 1.079134,-1.4207709 h 1.474999 l -1.323161,1.6485284 1.350275,2.147425 h -1.512957 l -0.742922,-1.20386 -0.325368,0.395864 v 0.807996 h -1.268933 z"
     inkscape:connector-curvature="0" />
</svg>
